<?xml version="1.0" encoding="UTF-8"?>
<svg width="54px" height="51px" viewBox="0 0 54 51" version="1.1" xmlns="http://www.w3.org/2000/svg" xmlns:xlink="http://www.w3.org/1999/xlink">
    <!-- Generator: Sketch 63.1 (92452) - https://sketch.com -->
    <title>dmlogo</title>
    <desc>Created with Sketch.</desc>
    <g id="dmlogo" stroke="none" stroke-width="1" fill="none" fill-rule="evenodd">
        <path d="M14.7,41.7 C14.7,41.7 17.2,42.6 18,42.6 C18,42.6 18.2,44.4 18.9,45.1 L18.9,45.1 L18.948688,45.1795918 C19.0571429,45.3265306 19.2285714,45.4 19.4,45.4 C19.8,45.5 20.5,45.5 21.3,45 C21.4,44.9 21.6,44.8 21.6,44.9 C21.6,44.9 21.8,47.1 19.6,47.1 C19.6,47.1 17.9,47.2 17.4,45.1 L17.4,45.1 L16.7,45.1 C16.7,45.5 16.6,46.3 16.3,47.1 L16.3,47.1 C16.2841837,47.1719388 16.1714286,47.6428571 15.8,48.2 L15.8,48.2 L15.7296,48.2712 C15.624,48.38 15.48,48.54 15.4,48.7 L15.4,48.7 L15.3,48.8 C14.7,49.4 14.1,49.7 13.8,49.8 C12,50.5 10.1,49.3 10.1,49.3 L10.1,49.3 L9.5,49 C9,48.6 8.3,47.9 7.9,47.6 C7.8,47.5 7.8,47.5 7.7,47.4 L7.7,47.4 L7.46621094,47.1998047 C6.9015625,46.70625 6.2125,46.05 5.6,45.7 L5.6,45.7 L5.47725948,45.651895 C5.24285714,45.5469388 5.07142857,45.4 4.9,45.4 L4.9,45.4 L4.8,45.4 C4.1,45.2 3.6,45.4 3.3,45.6 C3.1,45.7 3,45.8 2.9,45.9 L2.9,45.9 L2.8408,45.9704 C2.764,46.076 2.7,46.22 2.7,46.3 C2.4,47 2.7,47.6 2.7,47.7 C2.9,48.1 3.3,48.4 4.7,48.1 C4.7,48.1 4.5,48.8 3.6,49.2 C2.725,49.4625 2.2328125,49.265625 2.1234375,49.2123047 L2.1,49.2 C1.6,48.9 0.9,48.2 1,46.4 C1,46.4 0.9,44.2 3,43.2 L3,43.2 L3.1,43.2 C3.3,43.1 4,42.9 5,43 C6,43.2 7.5,43.8 7.7,45.3 L7.7,45.3 L8.7,45.3 C8.7,44.6 9,43.4 10.3,42.9 L10.3,42.9 C10.3804444,42.8751111 10.9466667,42.7133333 11.6,42.9 C12.2,43.1 12.8,43.5 12.7,44.4 C12.7,44.4 11,44.3 10.9,45.8 L10.9,45.8 L10.8954963,45.8242667 C10.8573333,46.0457778 10.6333333,47.7133333 12.5,47.9 L12.5,47.9 L12.608637,47.9167638 C13.0857143,47.9688776 13.6428571,47.75 14.2,47.1 C14.4,46.8 14.5,46.4 14.5,46.1 L14.5,46.1 Z M36.5,13.4 C37.9,14.6 39.6,16.6 39.6,16.6 L39.6,16.6 L39.5629738,17.1685131 C39.5,18.3265306 39.5,19.6 39.5,20.8 L39.5001953,20.8132812 C39.5015625,20.8734375 39.5125,21.125 39.6,21.3 L39.6,21.3 L39.669938,21.439275 C40.1710744,22.4332645 40.9,23.8 40.9,23.8 L40.9,23.8 L39.6,26.2 L39.5957031,26.2091797 C39.5765625,26.2515625 39.5,26.4375 39.5,26.7 L39.5,26.7 L39.5,35.9 L39.5,35.9 L39.6,39.6 L39.6,42.1 L39.8,45.5 L39.8,46.1 C39.8,46.4 39.9,46.8 40.1,47.1 C40.7,47.8 41.3,47.9 41.8,47.9 L41.8,47.9 L41.9921037,47.8744667 C43.7737778,47.5754444 43.4,45.8 43.4,45.8 L43.4,45.8 L43.3805312,45.6275712 C43.16672,44.30784 41.6,44.4 41.6,44.4 C41.5,43.5 42.2,43.1 42.7,42.9 C43.4,42.7 44,42.9 44,42.9 L44,42.9 L44.1875875,42.9665625 C45.32925,43.4285 45.6,44.635 45.6,45.3 L45.6,45.3 L46.6,45.3 C46.9,43.7 48.3,43.2 49.3,43 C50.3,42.9 51,43.1 51.2,43.2 L51.2,43.2 L51.3,43.2 C53.5,44.1 53.4,46.4 53.4,46.4 C53.5,48.2 52.8,49 52.2,48.9 C52.2,48.9 51.7,49.2 50.7,48.9 C49.8,48.6 49.6,47.8 49.6,47.8 C51,48.2 51.4,47.8 51.6,47.4 C51.7,47.4 51.9,46.7 51.6,46 C51.6,45.8 51.5,45.7 51.4,45.6 L51.4,45.6 L51.3425926,45.5152778 C51.2361111,45.3972222 51.0833333,45.3833333 51,45.3 C50.7,45.1 50.1,45 49.5,45.1 L49.5,45.1 L49.4,45.1 C49.2,45.1 49,45.2 48.7,45.4 L48.7,45.4 L48.4333984,45.5673828 C47.803125,45.9953125 47.125,46.6625 46.6,47.1 L46.6,47.1 L46.540625,47.159375 C46.49375,47.20625 46.475,47.225 46.4,47.3 C46,47.6 45.3,48.3 44.8,48.7 L44.8,48.7 L44.2,49 C44.2,49 42.2,50.2 40.5,49.5 C40.2,49.4 39.6,49.1 39,48.5 L39,48.5 L38.9,48.4 L38.8078704,48.3421296 C38.6666667,48.2333333 38.5833333,48.0666667 38.5,47.9 L38.5,47.9 L38.4188047,47.773105 C38.0862245,47.2311224 38,46.8 38,46.8 L38,46.8 L37.9253906,46.5753906 C37.753125,46.053125 37.6,45.55 37.6,45.2 L37.6,45.2 L36.7,45.2 C36.1,46.9 34.7,46.8 34.7,46.8 C32.5,46.9 32.7,44.6 32.7,44.6 C32.9,44.8 33,44.9 33.2,45 C34,45.6 34.7,45.5 35.1,45.4 C35.3,45.3 35.5,45.2 35.6,45.1 L35.6,45.1 L35.659375,45.025 C35.70625,44.95 35.725,44.875 35.8,44.8 C36.1,44.4 36.1,43.8 36.1,43.8 L36.1,43.8 L36.0708704,43.0157457 C35.9105263,38.2481994 36.0052632,32.3894737 36.1,26.8 L36.1,26.8 L36.0931413,26.6969822 C36.0580247,26.4160494 35.9,26.1 35.9,26.1 L35.9,26.1 L34.6,23.9 L36,22.2 L36.0331962,22.1233196 C36.1209877,21.8950617 36.2,21.5 36.2,21.5 L36.2,21.5 L36.2272727,20.7117956 C36.3181818,18.0942149 36.4090909,15.5818182 36.5,13.4 Z M28.1,44.2 L27.1,47.7 L26.2,44.2 L28.1,44.2 Z M5.7,9.7 C6.2,9.7 6.5,9.9 6.5,10.2 L6.5,10.2 L6.5,11.4 L8.9,11.4 L8.9,13.9 L10.7,13.9 L10.9,11.7 C10.9,11.7 12,11.1 13.2,10.7 C13.3,11.2 13.4,12 13.4,13 L13.4,13 L13.4,14.1 C13.4,14.1 11.8,15.5 11.1,19.4 L11.1,19.4 L11.1,29 C11.1,29 12.9,44.5 34.8,38.8 L34.8,38.8 L34.8,41.7 C34.8,41.7 23.6,45.5 10.8,38 L10.8,38 L10.8,35.8 L9,35.8 L9,38.3 L6.7,38.3 L6.7,39.5 C6.7,39.8 6.3,40 5.9,40 C5.4,40 5.1,39.8 5.1,39.5 L5.1,39.5 L5.1,38.8 L5.1,38.8 L4.87194049,38.8341004 C3.24820416,39.0478261 2.6826087,38.473913 2.3,37.9 C1.2,36 3.3,35.2 3.3,35.2 L3.3,35.2 L3.3,35.8 C3.3,36.3 3.5,36.9 4.1,37 C4.1,37 5.2,37.3 6.1,36.8 L6.1,36.8 L6.190625,36.725 C6.29375,36.65 6.425,36.575 6.5,36.5 C7,36 7.8,35.2 7.9,33.9 L7.9,33.9 L7.9,28.8 C7.9,27.7 7.5,27.3 7.5,27.3 L7.5,27.3 L5,24.8 L7.5,22.3 C7.7,22.1 7.9,21.7 7.9,21 L7.9,21 L7.9,17.2 C7.9,16.1 7.6,15.4 7.6,15.3 C6.7,13 5.9,12.9 4.9,12.8 C3.2,12.7 3.4,14.8 3.4,14.9 L3.4,14.9 L3.21508291,14.8220117 C1.62142857,14.0938776 1.91071429,12.675 2.2,12 C2.6,11.1 4.1,10.9 5,10.9 L5,10.9 L5,10.2 C5,10 5.4,9.7 5.7,9.7 Z M41.6,0 C41.7,0 42.3,0 42.9,0.2 C43.8,0.5 44.9,1.3 45,3 C45,3 45.1,4.6 44.2,5.4 C43.6,5.6 43.2,5.6 43,5.5 C42.6,5.3 42.1,5 42,4.4 L42,4.4 L42.3,4.6 C43.4,5.2 43.8,4.5 44,4.1 L44,4.1 L44,3.4 C43.7,2.1 42.4,2.3 42.4,2.3 C41.7,2.4 41.2,3.1 40.9,4 C40.7,5.2 40.5,6.9 40.3,8.9 C38.7,8 37.6,7.6 37.1,7.5 L37.1,7.5 L37.1,6.8 L36.4,6.8 C35.7,8.1 34.3,13.3 33,17.7 C32.5,19.3 31.9,21.2 31.4,23.3 L31.4,23.3 L31.1862974,24.2058309 C30.7612245,26.0285714 30.3571429,27.9142857 30.1,29.8 L30.1,29.8 L30.0578704,29.8921296 C30,30.0333333 30,30.1166667 30,30.2 C29.9,30.4 29.9,30.6 29.9,30.8 L29.9,30.8 L29.8639111,31.073363 C29.7133333,32.3182222 29.8066667,33.1333333 29.9,33.6 L29.9,33.6 L29.9,33.8 L29.9417969,33.9076172 C30.0484375,34.146875 30.2125,34.3 30.3,34.3 C30.7,34.5 31,34.5 31.2,34.4 L31.2,34.4 L31.3407959,34.3216309 C31.9996094,33.9136719 31.99375,33.275 31.9,32.9 L31.9,32.9 L31.9,32.8 L31.8374,32.6832 C31.643,32.343 31.4,32.1 31.4,32.1 C32.1,32 32.5,32.1 32.9,32.3 C33,32.3 33.6,32.7 33.8,33.4 C34.1,34.9 33.5,35.8 33.2,36.2 L33.2,36.2 L33.2,36.3 L33.2,36.3 L33.1,36.4 C32.7,36.8 31.8,37.5 30.3,37.6 L30.3,37.6 L30.0489796,37.5938776 C29.5591837,37.5693878 29.1428571,37.4714286 28.8,37.3 C28.9,37.7 29,38.2 29.4,39 C29.4,39 28.5,38.6 28.5,39.2 L28.5,39.2 L26,39.2 C26,38.6 25.1,39 25.1,39 C25.5,38.2 25.7,37.7 25.7,37.3 C25.2,37.5 24.8,37.6 24.2,37.6 L24.2,37.6 L23.9415021,37.5763078 C22.5958478,37.4186851 21.7764706,36.7764706 21.4,36.4 C21.4,36.4 21.4,36.4 21.3,36.3 C21.3,36.2 21.3,36.2 21.3,36.2 L21.2503135,36.1468436 C20.9393352,35.7933518 20.4157895,34.8210526 20.7,33.4 C20.9,32.7 21.5,32.4 21.6,32.3 C22,32.1 22.4,32 23.1,32.1 C23.1,32.1 22.7,32.4 22.6,32.8 L22.6,32.8 L22.6,32.9 C22.6,33.2 22.5,34 23.3,34.4 L23.3,34.4 L23.3796875,34.4326172 C23.5765625,34.496875 23.85,34.475 24.2,34.3 C24.2,34.2 24.5,34.1 24.6,33.8 L24.6,33.8 L24.6,33.6 C24.7,33.1 24.8,32.2 24.6,30.9 L24.6,30.9 L24.6,30.5 C24.6,30.3 24.5,30 24.5,29.8 L24.5,29.8 L24.4387913,29.4227615 C23.003551,20.7446939 19.7,12 19.7,12 C19.7,11.9 19.7,11.9 19.7,11.9 L19.785363,11.8400889 C20.2088889,11.5613333 20.9866667,11.3 22.2,11.3 C22.2,11.4 22.3,11.6 22.4,11.9 L22.4,11.9 L22.4,12 C22.5,12.3 23,13 24.7,13.9 C24.7,13.9 23.8,15.6 24,16.7 C25,19.9 26.2,23.6 26.6,24.9 C26.6,25 26.7,25.3 27.1,25.3 L27.1,25.3 L27.2,25.3 C27.3,25.2 27.4,25.2 27.5,25 L27.5,25 L27.5,24.8 L27.5441962,24.6570708 C27.9513223,23.3461438 28.9765468,20.1836935 29.9712821,17.1875477 L30.2,16.5 C30.4,15.4 29.5,13.7 29.5,13.7 C31.1,13 31.6,12.2 31.7,11.9 L31.7,11.9 L31.864158,11.5776198 C34.2351605,6.91209877 35,5 35,5 C35.4,3 32.8,2.2 32.8,2.2 C32.8,2.2 33.4,0.4 34.8,0.5 C34.8,0.5 36.3,0.5 36.9,1.6 L36.9,1.6 L38,1.6 C38.4,1.1 39.4,0.1 41.6,0 Z M36.6,8.9 C38.4,9.6 40.7,11.4 40.7,11.4 C42,12.6 44.1,14.6 46,17 L46,17 L46,18.8 L47.4,18.8 C48.4,20.1 49.2,21.4 49.9,22.7 L49.9,22.7 L49.9074074,22.7104252 C49.9469136,22.7641975 50.1444444,23.0111111 50.5,23.1 L50.5,23.1 L51.106031,23.0994822 C51.2050296,23.0902367 52.4846154,22.9423077 52.1,21.5 C52.1,21.5 52.3,21.5 52.6,21.7 L52.6,21.7 L52.659375,21.775 C52.70625,21.85 52.725,21.925 52.8,22 C53,22.3 53.2,22.9 53,23.6 L53,23.6 L52.9838279,23.6817524 C52.8524793,24.2530992 52.3318182,24.7954545 50.9,24.7 C51,24.8 51,25 51,25.1 C51,25.2 51,25.4 50.9,25.5 C52,25.3 52.5,25.7 52.8,26.1 L52.8,26.1 C52.842284,26.157716 53.1833333,26.6666667 52.9,27.8 L52.9,27.8 L52.8597598,27.9496642 C52.6200692,28.7 52,28.7 52,28.7 C52.4,27.1 51,27 51,27 C50.7,27 50.5,27.1 50.3,27.1 C50,27.3 49.8,27.6 49.7,27.7 L49.7,27.7 L49.3883382,28.2568513 C48.7428571,29.3693878 47.9714286,30.4714286 47.2,31.5 L47.2,31.5 L46.1,31.5 L46.1,32.9 C44.1,35.2 42.1,37.1 40.8,38.4 L40.8,38.4 L40.8,33.9 C42,31.3 42.8,27.4 42.8,27.4 L42.8,27.4 L42.8,27 L42.8,27 L43,27 C44.3,27 45.3,26 45.3,24.7 C45.3,23.4 44.3,22.4 43,22.4 L43,22.4 L42.8,22.4 C42.7,21.9 42.1,19.1 41.2,16.9 C41.2,16.8 40.9,16.3 40.5,15.6 L40.5,15.6 L40.440625,15.525 C40.39375,15.45 40.375,15.375 40.3,15.3 C40.2,15.3 40.2,15.2 40.2,15.2 L40.2,15.2 L40.024537,14.931713 C38.6762153,12.9258681 37.2666667,12.0833333 36.5,11.7 C36.5,10.6 36.6,9.7 36.6,8.9 Z M11.4,0.5 C11.5,0.5 12.2,0.4 13.2,0.5 L13.2,0.5 L13.4483,0.5343875 C14.97875,0.77925 15.715,1.525 16,2 L16,2 L17.1,2 C17.6478261,0.995652174 18.9459357,0.90831758 19.1675516,0.900723268 L19.2,0.9 C20.6,0.8 21.2,2.6 21.2,2.6 C20.5,2.6 19.9,3 19.4,3.4 C19.2,3.5 18.8,3.9 18.8,4.7 C18.8,6 19.5,6.9 19.5,6.9 C18.1,7.9 17.6,6.4 17.4,5.8 C17.6,8.3 17.9,15.1 18.1,22.2 C18.1,22.2 18.2,22.6 18.4,22.8 L18.4,22.8 L19.5,24 L18.4,26.4 C18.3,26.5 18.3,26.7 18.3,27 L18.3,27 L18.3184402,27.7482872 C18.3857143,30.9826531 18.2928571,34.1 18.2,36.7 C18.2,36.7 15.8,35.8 14.7,33.9 C14.7,33.9 14.9,31 14.9,26.9 C14.9,26.4 14.7,26 14.6,25.9 L14.6,25.9 L13.4,24.1 L14.6,22 C14.8,21.5 14.9,21.1 14.9,20.7 L14.9,20.7 L14.9,20.1 C14.9,14.9 14.7,9.3 14.2,5.7 C13.9,4.2 13.3,2.7 12.3,2.6 C12.3,2.6 11.3,2.4 10.9,3.2 C10.8,3.3 10.6,3.9 10.8,4.4 C10.8,4.5 10.8,4.5 10.8,4.5 L10.8384083,4.5537757 C11.0598616,4.84394464 11.5470588,5.17058824 12.3,4.7 L12.3,4.7 L12.6,4.5 C12.6,5 12.2,5.3 11.8,5.5 C11.3,5.7 10.9,5.6 10.7,5.5 C9,4.9 9.2,3.2 9.2,3.1 C9.3,1.2 10.8,0.5 11.4,0.5 Z M19.1,8.4 C19.1,8.4 25,6 32.2,7.4 L32.2,7.4 L31.2,9.5 C31.2,9.5 23.5,8.7 19.1,10.3 L19.1,10.3 Z" id="Combined-Shape" fill="#796654" fill-rule="nonzero"></path>
    </g>
</svg>